<?xml version="1.0" encoding="utf-8"?>
<svg version="1.1" id="Layer_1" xmlns="http://www.w3.org/2000/svg" xmlns:xlink="http://www.w3.org/1999/xlink" x="0px" y="0px"
	 width="100px" height="100px" viewBox="0 0 100 100" style="enable-background:new 0 0 100 100;" xml:space="preserve">
<style type="text/css">
	.st0{fill:#FFFFFF;}
</style>
<g>
	<path class="st0" d="M94,2c2.2,0,4,1.8,4,4v88c0,2.2-1.8,4-4,4H6c-2.2,0-4-1.8-4-4V6c0-2.2,1.8-4,4-4H94 M94,0H6C2.7,0,0,2.7,0,6
		v88c0,3.3,2.7,6,6,6h88c3.3,0,6-2.7,6-6V6C100,2.7,97.3,0,94,0L94,0z"/>
</g>
<path class="st0" d="M93,95H7c-1.1,0-2-0.9-2-2V33c0-1.1,0.9-2,2-2h86c1.1,0,2,0.9,2,2v60C95,94.1,94.1,95,93,95z"/>
</svg>
