<?xml version="1.0" encoding="utf-8"?>
<svg version="1.1" id="Layer_1" xmlns="http://www.w3.org/2000/svg" xmlns:xlink="http://www.w3.org/1999/xlink" x="0px" y="0px"
	 width="128.3px" height="118.9px" viewBox="0 0 128.3 118.9" style="enable-background:new 0 0 128.3 118.9;" xml:space="preserve"
	>
<style type="text/css">
	.st0{fill:#FFFFFF;}
	.st1{fill:none;stroke:#FFFFFF;stroke-width:2;stroke-miterlimit:10;}
	.st2{fill:none;stroke:#FFFFFF;stroke-miterlimit:10;}
	.st3{fill:none;stroke:#FFFFFF;stroke-miterlimit:10;stroke-dasharray:5,5;}
	.st4{fill:none;stroke:#FFFFFF;stroke-miterlimit:10;stroke-dasharray:7.9091,7.9091;}
	.st5{fill:none;stroke:#FFFFFF;stroke-miterlimit:10;stroke-dasharray:8.5556,8.5556;}
	.st6{fill:none;stroke:#FFFFFF;stroke-miterlimit:10;stroke-dasharray:7.8667,7.8667;}
	.st7{fill:none;stroke:#FFFFFF;stroke-miterlimit:10;stroke-dasharray:7.7143,7.7143;}
	.st8{fill:none;stroke:#FFFFFF;stroke-miterlimit:10;stroke-dasharray:7.6667,7.6667;}
</style>
<g>
	<g>
		<path class="st0" d="M1.4,108.8c-0.7-0.3-1.1-0.9-1.2-1.8c0-0.4,0.1-0.8,0.3-1.2c0.2-0.4,0.5-0.7,0.9-1.1
			c-0.2-0.1-0.4-0.3-0.5-0.5c-0.1-0.2-0.2-0.5-0.2-0.7c0-0.2,0-0.4,0.1-0.6c0.1-0.2,0.3-0.5,0.5-1c-0.8-0.6-1.3-1.4-1.3-2.6
			c0-1.1,0.2-1.9,0.9-2.5c0.6-0.6,1.6-0.9,2.7-0.9c0.5,0,1.1,0,1.8,0.2l2.9-0.2l0.1,1.9l-1.4,0c0.2,0.2,0.3,0.5,0.3,0.6
			c0.1,0.2,0.1,0.4,0.1,0.7c0,1.1-0.2,1.9-0.8,2.4s-1.5,0.8-2.8,0.8c-0.4,0-0.6,0-0.8,0C3,102.5,3,102.8,3,103
			c0,0.3,0.1,0.4,0.4,0.4c0.2,0,0.7,0.1,1.4,0c0.9,0,1.7,0,2.2,0.1c0.6,0.1,1,0.3,1.3,0.7c0.3,0.4,0.5,0.9,0.5,1.6
			c0,1.1-0.3,1.9-1,2.5c-0.7,0.5-1.8,0.9-3.4,0.9C3.1,109.3,2.1,109.1,1.4,108.8z M5.2,99c0-0.9-0.5-1.3-1.4-1.3
			c-0.9,0-1.4,0.5-1.3,1.4c0,0.9,0.5,1.3,1.4,1.3C4.8,100.4,5.2,99.9,5.2,99z M6,106.9c0.3-0.2,0.4-0.4,0.4-0.7
			c0-0.3-0.1-0.5-0.4-0.6c-0.2-0.1-0.5-0.1-0.8-0.1c-0.3,0-0.5,0-0.6,0L3,105.5c-0.3,0.3-0.5,0.7-0.4,1c0,0.3,0.2,0.5,0.5,0.6
			c0.3,0.1,0.8,0.2,1.4,0.1C5.2,107.2,5.7,107.1,6,106.9z"/>
		<path class="st0" d="M11.9,92.1l2.4-0.1l0.6,12.6l-2.4,0.1L11.9,92.1z"/>
		<path class="st0" d="M19.8,103.4c-0.7-0.8-1.1-1.9-1.2-3.5c-0.1-1.5,0.2-2.7,0.9-3.5c0.7-0.8,1.7-1.3,3-1.4
			c1.4-0.1,2.4,0.3,3.1,1.1c0.7,0.8,1.1,1.9,1.2,3.4c0.1,1.5-0.2,2.7-0.9,3.5c-0.7,0.9-1.7,1.3-3,1.4
			C21.6,104.5,20.6,104.1,19.8,103.4z M24.1,101.7c0.3-0.4,0.4-1.1,0.3-2.1c0-0.9-0.2-1.6-0.5-2c-0.3-0.4-0.7-0.6-1.3-0.6
			c-0.6,0-1,0.2-1.2,0.7c-0.3,0.4-0.4,1.1-0.3,2.1c0,0.9,0.2,1.6,0.5,2c0.3,0.4,0.7,0.6,1.3,0.6C23.5,102.4,23.9,102.1,24.1,101.7z"
			/>
		<path class="st0" d="M31.7,103.9l-0.7,0l-0.6-12.6l2.4-0.1L33,95c0.4-0.2,0.8-0.3,1.1-0.4c0.3-0.1,0.6-0.1,1-0.2
			c1.2-0.1,2.1,0.3,2.7,1c0.6,0.7,0.9,1.9,1,3.6c0.1,1.2,0,2.1-0.3,2.8c-0.3,0.7-0.7,1.2-1.3,1.5c-0.6,0.3-1.4,0.5-2.5,0.6
			C33.9,104,32.9,103.9,31.7,103.9z M36,101.1c0.3-0.4,0.4-1.1,0.3-2c0-0.9-0.2-1.6-0.5-2c-0.3-0.4-0.7-0.6-1.3-0.5
			c-0.4,0-0.9,0.1-1.5,0.3l0.2,4.8c0.5,0,0.9,0,1.2,0C35.2,101.7,35.7,101.5,36,101.1z"/>
		<path class="st0" d="M44.1,103c-0.5-0.3-0.8-0.8-1-1.4s-0.3-1.5-0.4-2.6l-0.2-4.7l2.4-0.1l0.2,4.7c0,0.6,0.1,1.1,0.2,1.4
			c0.1,0.3,0.2,0.5,0.4,0.6c0.2,0.1,0.5,0.2,0.9,0.1c0.3,0,0.5,0,0.7-0.1c0.2-0.1,0.5-0.2,0.9-0.3l-0.3-6.7l2.4-0.1l0.4,9l-2.4,0.1
			l0-0.5c-0.5,0.3-0.9,0.5-1.3,0.6c-0.3,0.1-0.7,0.2-1.1,0.2C45.1,103.4,44.5,103.3,44.1,103z"/>
		<path class="st0" d="M54.6,90.2l2.4-0.1l0.6,12.6l-2.4,0.1L54.6,90.2z"/>
		<path class="st0" d="M62.4,101.6c-0.7-0.7-1-1.8-1.1-3.4c-0.1-1.7,0.2-2.9,0.8-3.7s1.6-1.3,3-1.4c1.3-0.1,2.2,0.2,2.9,0.9
			c0.7,0.6,1.1,1.6,1.1,3l-0.1,1.7l-5.3,0.2c0,0.4,0.1,0.7,0.3,1c0.1,0.2,0.3,0.4,0.6,0.4c0.3,0.1,0.7,0.1,1.2,0.1
			c0.4,0,0.9-0.1,1.4-0.1c0.6,0,1-0.1,1.2-0.1l0.5-0.1l0.1,1.8c-1.3,0.4-2.5,0.6-3.6,0.7C64.1,102.6,63.1,102.3,62.4,101.6z
			 M66.8,96.9c0-0.7-0.2-1.2-0.4-1.5c-0.2-0.3-0.6-0.4-1.2-0.4c-0.6,0-1,0.2-1.2,0.5c-0.2,0.3-0.3,0.8-0.3,1.5L66.8,96.9z"/>
		<path class="st0" d="M73.6,101.8l-0.6-0.1l0-2c1.5,0.1,2.5,0.2,3.2,0.1c0.4,0,0.8-0.1,1-0.2c0.3-0.1,0.4-0.3,0.4-0.6
			c0-0.2-0.1-0.4-0.4-0.5c-0.3-0.1-0.7-0.2-1.2-0.2c-0.2,0-0.4,0-0.5-0.1c-0.6-0.1-1.1-0.2-1.5-0.3c-0.4-0.1-0.7-0.4-1-0.7
			c-0.3-0.3-0.4-0.8-0.4-1.5c0-1,0.2-1.8,0.8-2.3c0.6-0.5,1.4-0.8,2.5-0.9c0.6,0,1.6,0,2.9,0.2l0.6,0.1l0.1,2
			c-1.5-0.1-2.5-0.2-3.2-0.1c-0.4,0-0.7,0.1-1,0.2c-0.2,0.1-0.3,0.3-0.3,0.5c0,0.3,0.1,0.4,0.4,0.5c0.2,0.1,0.6,0.2,1.2,0.2l0.6,0.1
			c1,0.1,1.7,0.4,2.1,0.8c0.4,0.4,0.7,1,0.7,1.8c0,1-0.2,1.8-0.8,2.3c-0.6,0.5-1.5,0.8-2.7,0.9C75.7,102,74.7,102,73.6,101.8z"/>
		<path class="st0" d="M83.7,98.5l2.6-0.1l0.1,3l-2.6,0.1L83.7,98.5z"/>
		<path class="st0" d="M90.1,88.6l2.4-0.1l0.1,2.4L90.3,91L90.1,88.6z M90.3,92.1l2.4-0.1l0.4,9l-2.4,0.1L90.3,92.1z"/>
		<path class="st0" d="M98,99.8c-0.7-0.8-1.1-1.9-1.2-3.4c-0.1-1.5,0.2-2.7,0.9-3.5c0.7-0.8,1.7-1.3,3-1.4c1.4-0.1,2.4,0.3,3.1,1.1
			c0.7,0.8,1.1,1.9,1.2,3.4c0.1,1.5-0.2,2.7-0.9,3.5c-0.7,0.9-1.7,1.3-3,1.4C99.8,100.9,98.7,100.6,98,99.8z M102.3,98.1
			c0.3-0.4,0.4-1.1,0.3-2.1c0-0.9-0.2-1.6-0.5-2c-0.3-0.4-0.7-0.6-1.3-0.6s-1,0.2-1.2,0.7c-0.3,0.4-0.4,1.1-0.3,2
			c0,0.9,0.2,1.6,0.5,2c0.3,0.4,0.7,0.6,1.3,0.6S102,98.6,102.3,98.1z"/>
	</g>
</g>
<g>
	<g>
		<path class="st0" d="M50,118.1c-0.3-0.2-0.6-0.5-0.7-1c-0.1-0.5-0.2-1.1-0.2-2l0-4.7l-1.3,0l0-1.2l1.3,0l0-2.8l1.3,0l0,2.8l2.9,0
			l0,1.2l-2.9,0l0,4.3c0,0.7,0,1.2,0.1,1.5c0,0.3,0.2,0.6,0.3,0.8c0.2,0.2,0.5,0.3,0.9,0.3l1.6-0.1l0.1,1.1
			c-0.9,0.1-1.5,0.2-1.9,0.2C50.8,118.4,50.3,118.3,50,118.1z"/>
		<path class="st0" d="M57.5,117.3c-0.6-0.7-0.8-1.8-0.8-3.4c0-1.7,0.3-2.9,0.9-3.7c0.6-0.8,1.6-1.2,2.9-1.2c1.2,0,2.1,0.4,2.7,1.1
			c0.6,0.7,0.9,1.8,0.9,3.2l-0.1,1l-5.9,0c0,0.7,0.1,1.3,0.2,1.7s0.4,0.7,0.8,0.9c0.4,0.2,0.9,0.3,1.6,0.3c0.3,0,0.8,0,1.2,0
			s0.9,0,1.2-0.1l0.5,0l0,1.1c-1.3,0.2-2.4,0.3-3.3,0.3C59,118.4,58.1,118.1,57.5,117.3z M62.7,113.3c0-1.1-0.2-1.9-0.5-2.3
			s-0.9-0.7-1.7-0.7c-0.8,0-1.4,0.2-1.8,0.7c-0.4,0.5-0.6,1.2-0.6,2.3L62.7,113.3z"/>
		<path class="st0" d="M69.4,118c-0.5-0.3-0.9-0.8-1.1-1.5c-0.2-0.7-0.3-1.6-0.3-2.7c0-1.4,0.3-2.6,0.7-3.4s1.4-1.3,2.8-1.3
			c0.4,0,0.7,0,1.1,0.1s0.9,0.1,1.6,0.2l-0.1,1.1c-0.9-0.1-1.7-0.2-2.2-0.2c-0.7,0-1.2,0.1-1.6,0.3c-0.4,0.2-0.6,0.6-0.8,1.1
			c-0.2,0.5-0.2,1.2-0.2,2.1c0,0.9,0.1,1.6,0.2,2c0.1,0.5,0.4,0.8,0.8,1.1c0.4,0.2,0.9,0.3,1.6,0.3l2.1-0.1l0,1.1
			c-1.2,0.2-2,0.2-2.6,0.2C70.6,118.5,69.9,118.4,69.4,118z"/>
		<path class="st0" d="M78.4,105.5l1.4,0l0,4.4c0.5-0.2,1-0.4,1.5-0.5s0.9-0.2,1.4-0.2c0.8,0,1.4,0.2,1.8,0.4s0.7,0.7,0.9,1.4
			s0.3,1.5,0.2,2.6l0,4.8l-1.3,0l0-4.7c0-0.9,0-1.6-0.1-2c-0.1-0.5-0.3-0.8-0.6-1c-0.3-0.2-0.7-0.3-1.2-0.3c-0.7,0-1.4,0.1-2.1,0.4
			l-0.3,0.1l-0.1,7.4l-1.4,0L78.4,105.5z"/>
		<path class="st0" d="M90.3,105.6l1.3,0l-0.1,12.9l-1.3,0L90.3,105.6z"/>
		<path class="st0" d="M96.5,118c-0.4-0.5-0.6-1.1-0.6-2c0-0.9,0.2-1.5,0.7-1.9c0.4-0.4,1.1-0.7,2.1-0.8l2.8-0.2l0-0.8
			c0-1.1-0.5-1.7-1.5-1.7c-1,0-2.2,0.1-3.5,0.2l0-1c1.3-0.3,2.5-0.4,3.5-0.4c1,0,1.8,0.2,2.2,0.7c0.5,0.5,0.7,1.2,0.7,2.2l0,4.6
			c0,0.4,0.4,0.7,1,0.8l-0.1,1.1c-0.9,0-1.7-0.3-2.1-0.7c-1.1,0.5-2.2,0.7-3.2,0.7C97.6,118.7,97,118.5,96.5,118z M101,117.2
			l0.4-0.1l0-3l-2.7,0.2c-0.5,0-0.9,0.2-1.2,0.5c-0.2,0.3-0.4,0.6-0.4,1.2c0,1.1,0.4,1.7,1.4,1.7C99.4,117.6,100.2,117.5,101,117.2z
			"/>
		<path class="st0" d="M108.1,118.7l-0.5-0.1l0.1-12.9l1.3,0l0,4.4c0.9-0.4,1.9-0.6,2.7-0.6c0.8,0,1.4,0.2,1.9,0.5
			c0.5,0.3,0.8,0.8,1,1.5c0.2,0.7,0.3,1.6,0.3,2.7c0,1.2-0.1,2.2-0.4,2.9c-0.3,0.7-0.7,1.1-1.3,1.4c-0.6,0.3-1.5,0.4-2.6,0.4
			C109.7,118.8,108.9,118.7,108.1,118.7z M112.4,117.3c0.4-0.2,0.7-0.6,0.9-1.1c0.2-0.5,0.2-1.2,0.3-2.1c0-0.9-0.1-1.5-0.2-2
			c-0.1-0.5-0.3-0.8-0.6-1.1c-0.3-0.2-0.7-0.3-1.3-0.3c-0.7,0-1.5,0.2-2.4,0.5l0,6.3c0.9,0.1,1.4,0.1,1.7,0.1
			C111.4,117.6,112,117.5,112.4,117.3z"/>
		<path class="st0" d="M119.4,118.6l-0.5-0.1l0.1-1.2c1.4,0.2,2.4,0.3,3.1,0.3c0.7,0,1.3-0.1,1.6-0.3c0.4-0.2,0.5-0.6,0.5-1.1
			c0-0.4-0.1-0.7-0.3-0.8c-0.2-0.2-0.4-0.3-0.7-0.4c-0.3-0.1-0.7-0.2-1.1-0.2l-0.4-0.1c-0.7-0.1-1.3-0.3-1.7-0.4
			c-0.4-0.2-0.7-0.4-0.9-0.7c-0.2-0.3-0.3-0.7-0.3-1.3c0-1,0.3-1.7,0.9-2.1c0.6-0.4,1.4-0.6,2.5-0.6c0.9,0,1.7,0.1,2.6,0.3l0.5,0.1
			l0,1.2c-1.3-0.2-2.3-0.3-3-0.3c-0.7,0-1.2,0.1-1.6,0.3c-0.3,0.2-0.5,0.5-0.5,1c0,0.3,0.1,0.6,0.2,0.7c0.2,0.2,0.4,0.3,0.7,0.4
			c0.3,0.1,0.6,0.2,1.1,0.3l0.4,0.1c0.7,0.1,1.3,0.3,1.7,0.5c0.4,0.2,0.7,0.4,0.9,0.8c0.2,0.3,0.3,0.8,0.3,1.4c0,1-0.3,1.7-0.9,2.1
			c-0.6,0.4-1.4,0.7-2.6,0.7C121.4,118.9,120.5,118.8,119.4,118.6z"/>
	</g>
</g>
<ellipse transform="matrix(0.8517 -0.524 0.524 0.8517 -15.0117 32.5373)" class="st1" cx="50" cy="42.8" rx="48.5" ry="33.5"/>
<ellipse transform="matrix(0.3621 -0.9322 0.9322 0.3621 6.3997 115.3468)" class="st1" cx="87.5" cy="53" rx="26.8" ry="38.8"/>
<g>
	<g>
		<polyline class="st2" points="100.8,23.5 96.8,23.5 96.8,19.5 		"/>
		<line class="st3" x1="96.8" y1="14.5" x2="96.8" y2="7"/>
		<polyline class="st2" points="96.8,4.5 96.8,0.5 92.8,0.5 		"/>
		<line class="st4" x1="84.9" y1="0.5" x2="9.7" y2="0.5"/>
		<polyline class="st2" points="5.8,0.5 1.8,0.5 1.8,4.5 		"/>
		<line class="st5" x1="1.8" y1="13.1" x2="1.8" y2="77.2"/>
		<polyline class="st2" points="1.8,81.5 1.8,85.5 5.8,85.5 		"/>
		<line class="st6" x1="13.6" y1="85.5" x2="119.8" y2="85.5"/>
		<polyline class="st2" points="123.8,85.5 127.8,85.5 127.8,81.5 		"/>
		<line class="st7" x1="127.8" y1="73.8" x2="127.8" y2="31.4"/>
		<polyline class="st2" points="127.8,27.5 127.8,23.5 123.8,23.5 		"/>
		<line class="st8" x1="116.1" y1="23.5" x2="104.6" y2="23.5"/>
	</g>
</g>
</svg>
