<?xml version="1.0" encoding="utf-8"?>
<svg version="1.1" id="Layer_1" xmlns="http://www.w3.org/2000/svg" xmlns:xlink="http://www.w3.org/1999/xlink" x="0px" y="0px"
	 width="48px" height="48px" viewBox="0 0 48 48" style="enable-background:new 0 0 48 48;" xml:space="preserve">
<style type="text/css">
	.st0{fill:#FFFFFF;}
</style>
<path class="st0" d="M24,0C10.7,0,0,10.7,0,24s10.7,24,24,24s24-10.7,24-24S37.3,0,24,0z M24,45C12.4,45,3,35.6,3,24
	C3,12.4,12.4,3,24,3c11.6,0,21,9.4,21,21C45,35.6,35.6,45,24,45z"/>
<path class="st0" d="M22,37h4v-4h-4V37z M25.5,11.3C20,10.4,15.2,14.7,15.2,20h4.4c0-2.7,2.5-4.9,5.3-4.3c2.1,0.4,3.6,2.5,3.5,4.6
	c-0.3,4.1-6.6,3.8-6.6,10.7h4.4c0-5.2,7-5.5,6.6-11.5C32.5,15.5,29.5,12,25.5,11.3z"/>
</svg>
