<?xml version="1.0" encoding="utf-8"?>
<svg version="1.1" id="Layer_1" xmlns="http://www.w3.org/2000/svg" xmlns:xlink="http://www.w3.org/1999/xlink" x="0px" y="0px"
	 width="100px" height="100px" viewBox="0 0 100 100" style="enable-background:new 0 0 100 100;" xml:space="preserve">
<style type="text/css">
	.st0{fill:#FFFFFF;}
</style>
<g>
	<path class="st0" d="M13,23c-2.8,0-5-2.2-5-5v-2c0-2.8,2.2-5,5-5h74c2.8,0,5,2.2,5,5v2c0,2.8-2.2,5-5,5H13z"/>
	<path class="st0" d="M87,12c2.2,0,4,1.8,4,4v2c0,2.2-1.8,4-4,4H13c-2.2,0-4-1.8-4-4v-2c0-2.2,1.8-4,4-4H87 M87,10H13
		c-3.3,0-6,2.7-6,6v2c0,3.3,2.7,6,6,6h74c3.3,0,6-2.7,6-6v-2C93,12.7,90.3,10,87,10L87,10z"/>
</g>
<g>
	<path class="st0" d="M13,89c-2.8,0-5-2.2-5-5v-2c0-2.8,2.2-5,5-5h74c2.8,0,5,2.2,5,5v2c0,2.8-2.2,5-5,5H13z"/>
	<path class="st0" d="M87,78c2.2,0,4,1.8,4,4v2c0,2.2-1.8,4-4,4H13c-2.2,0-4-1.8-4-4v-2c0-2.2,1.8-4,4-4H87 M87,76H13
		c-3.3,0-6,2.7-6,6v2c0,3.3,2.7,6,6,6h74c3.3,0,6-2.7,6-6v-2C93,78.7,90.3,76,87,76L87,76z"/>
</g>
<g>
	<path class="st0" d="M13,45c-2.8,0-5-2.2-5-5v-2c0-2.8,2.2-5,5-5h74c2.8,0,5,2.2,5,5v2c0,2.8-2.2,5-5,5H13z"/>
	<path class="st0" d="M87,34c2.2,0,4,1.8,4,4v2c0,2.2-1.8,4-4,4H13c-2.2,0-4-1.8-4-4v-2c0-2.2,1.8-4,4-4H87 M87,32H13
		c-3.3,0-6,2.7-6,6v2c0,3.3,2.7,6,6,6h74c3.3,0,6-2.7,6-6v-2C93,34.7,90.3,32,87,32L87,32z"/>
</g>
<g>
	<path class="st0" d="M13,67c-2.8,0-5-2.2-5-5v-2c0-2.8,2.2-5,5-5h74c2.8,0,5,2.2,5,5v2c0,2.8-2.2,5-5,5H13z"/>
	<path class="st0" d="M87,56c2.2,0,4,1.8,4,4v2c0,2.2-1.8,4-4,4H13c-2.2,0-4-1.8-4-4v-2c0-2.2,1.8-4,4-4H87 M87,54H13
		c-3.3,0-6,2.7-6,6v2c0,3.3,2.7,6,6,6h74c3.3,0,6-2.7,6-6v-2C93,56.7,90.3,54,87,54L87,54z"/>
</g>
<g>
	<path class="st0" d="M94,2c2.2,0,4,1.8,4,4v88c0,2.2-1.8,4-4,4H6c-2.2,0-4-1.8-4-4V6c0-2.2,1.8-4,4-4H94 M94,0H6C2.7,0,0,2.7,0,6
		v88c0,3.3,2.7,6,6,6h88c3.3,0,6-2.7,6-6V6C100,2.7,97.3,0,94,0L94,0z"/>
</g>
</svg>
