<?xml version="1.0" encoding="utf-8"?>
<svg version="1.1" id="Layer_1" xmlns="http://www.w3.org/2000/svg" xmlns:xlink="http://www.w3.org/1999/xlink" x="0px" y="0px"
	 width="300px" height="300px" viewBox="0 0 300 300" style="enable-background:new 0 0 300 300;" xml:space="preserve">
<style type="text/css">
	.st0{fill:#FFFFFF;}
</style>
<g>
	<path class="st0" d="M150,295C70,295,5,230,5,150S70,5,150,5s145,65,145,145S230,295,150,295z M150,17.5
		C76.9,17.5,17.5,76.9,17.5,150S76.9,282.5,150,282.5S282.5,223.1,282.5,150S223.1,17.5,150,17.5z"/>
	<path class="st0" d="M170.9,72.8c-7.2,0-14.2,1.1-20.9,3.4c-6.7-2.3-13.8-3.4-20.9-3.4c-36.2,0-65.6,29.4-65.6,65.6
		c0,18.4,7.7,35.9,21.3,48.3c3.3,33.3,31.6,59.1,65.3,59.1c33.6,0,62-25.8,65.3-59.1c13.5-12.4,21.3-29.9,21.3-48.3
		C236.5,102.3,207.1,72.8,170.9,72.8z M150,235.8c-28.4,0-52.4-21.2-56.2-49c10.4,8.1,23.2,12.5,36.5,12.5c6.8,0,13.4-1.1,19.7-3.3
		l0,0l0,0c6.3,2.2,13,3.3,19.7,3.3c13.2,0,26-4.4,36.5-12.5C202.4,214.6,178.4,235.8,150,235.8z M150,86.4
		c19.6,7.3,33.6,24.8,36.4,45.4c-10.4-8-23.2-12.5-36.4-12.5c-13.2,0-26,4.4-36.4,12.5C116.4,111.3,130.4,93.7,150,86.4z M150,192.8
		c-22.2-8.2-37-29.5-37-53.2c0-1.1,0-2.3,0.1-3.6c10.3-8.8,23.3-13.6,36.9-13.6c13.5,0,26.6,4.8,36.9,13.6c0.1,1.4,0.1,2.5,0.1,3.6
		C187,163.3,172.2,184.6,150,192.8z M110.3,134.6L110.3,134.6L110.3,134.6c-12.7,11.3-20,27.5-20,44.5c0,0.3,0,0.5,0,0.8
		c-10.7-10.6-16.8-25.1-16.8-40.3c0-31.3,25.5-56.8,56.8-56.8c5.2,0,10.4,0.7,15.4,2.1C125.8,93.7,112.1,112.7,110.3,134.6z
		 M93.4,182.7c-0.1-1.3-0.1-2.5-0.1-3.6c0-15.2,6.1-29.6,16.8-40.3c0,0.3,0,0.5,0,0.8c0,23.7,14.2,45.1,35.6,54.6
		c-5,1.4-10.2,2.1-15.4,2.1C116.7,196.4,103.7,191.5,93.4,182.7z M169.7,196.4c-5.2,0-10.4-0.7-15.4-2.1
		c21.5-9.5,35.6-30.9,35.6-54.6c0-0.3,0-0.5,0-0.8c10.7,10.6,16.8,25.1,16.8,40.3c0,1.1,0,2.3-0.1,3.6
		C196.3,191.5,183.3,196.4,169.7,196.4z M209.7,179.9c0-0.3,0-0.5,0-0.8c0-17-7.3-33.2-20-44.5l0,0l0,0
		c-1.8-21.8-15.5-40.8-35.4-49.6c5-1.4,10.2-2.1,15.4-2.1c31.3,0,56.8,25.5,56.8,56.8C226.5,154.8,220.4,169.3,209.7,179.9z"/>
</g>
</svg>
