<?xml version="1.0" encoding="utf-8"?>
<!-- Generator: Adobe Illustrator 22.1.0, SVG Export Plug-In . SVG Version: 6.00 Build 0)  -->
<svg version="1.1" id="Layer_1" xmlns="http://www.w3.org/2000/svg" xmlns:xlink="http://www.w3.org/1999/xlink" x="0px" y="0px"
	 width="48px" height="48px" viewBox="0 0 48 48" style="enable-background:new 0 0 48 48;" xml:space="preserve">
<style type="text/css">
	.st0{fill:#FFFFFF;}
</style>
<g>
	<path class="st0" d="M19,13.9h-1.9c-0.2,0-0.5,0-0.8,0.1s-0.5,0.1-0.7,0.3c-0.2,0.1-0.4,0.3-0.5,0.5c-0.1,0.2-0.2,0.4-0.2,0.7v0
		v5.2c0,0.8-0.1,1.4-0.3,2s-0.5,1.1-0.8,1.5c0.4,0.5,0.7,1.1,0.9,1.7s0.3,1.2,0.3,1.7v5.2c0,0.3,0.1,0.6,0.3,0.8s0.4,0.4,0.6,0.5
		c0.2,0.1,0.5,0.2,0.7,0.2c0.2,0,0.4,0,0.6,0H19v3.9h-1.9c-0.4,0-0.8,0-1.3-0.1c-0.5-0.1-0.9-0.2-1.4-0.4c-0.4-0.2-0.9-0.4-1.3-0.7
		c-0.4-0.3-0.8-0.6-1.1-1c-0.3-0.4-0.6-0.9-0.7-1.4S11,33.3,11,32.7v-5.2c0-0.5-0.1-0.9-0.4-1.2c-0.3-0.3-0.6-0.4-1.1-0.4
		c-0.3,0-0.5-0.1-0.8-0.2c-0.2-0.1-0.4-0.2-0.6-0.4C8,25.2,7.8,25,7.7,24.8c-0.1-0.2-0.1-0.5-0.1-0.8c0-0.3,0-0.5,0.1-0.7
		s0.2-0.4,0.4-0.6c0.2-0.2,0.4-0.3,0.6-0.4c0.2-0.1,0.5-0.2,0.7-0.2c0.5,0,0.9-0.1,1.2-0.4s0.4-0.6,0.4-1.1v-5.2
		c0-0.8,0.2-1.6,0.5-2.3s0.8-1.2,1.4-1.7c0.6-0.5,1.2-0.8,1.9-1c0.7-0.2,1.5-0.4,2.2-0.4H19V13.9z"/>
</g>
<g>
	<path class="st0" d="M28.6,10h1.9c0.8,0,1.5,0.1,2.2,0.4c0.7,0.2,1.4,0.6,1.9,1c0.6,0.5,1,1,1.4,1.7c0.3,0.7,0.5,1.4,0.5,2.3v5.2
		c0,0.5,0.1,0.9,0.4,1.1c0.3,0.3,0.7,0.4,1.2,0.4c0.3,0,0.5,0.1,0.7,0.2c0.2,0.1,0.4,0.2,0.6,0.4s0.3,0.4,0.4,0.6
		C40,23.5,40,23.8,40,24c0,0.3,0,0.5-0.1,0.8c-0.1,0.2-0.2,0.4-0.4,0.6s-0.4,0.3-0.6,0.4c-0.2,0.1-0.5,0.2-0.8,0.2
		c-0.5,0-0.9,0.1-1.1,0.4c-0.3,0.3-0.4,0.6-0.4,1.2v5.2c0,0.7-0.1,1.2-0.3,1.8c-0.2,0.5-0.4,1-0.7,1.4c-0.3,0.4-0.7,0.7-1.1,1
		s-0.8,0.5-1.3,0.7c-0.4,0.2-0.9,0.3-1.4,0.4c-0.5,0.1-0.9,0.1-1.3,0.1h-1.9v-3.9h1.9c0.1,0,0.3,0,0.6,0c0.2,0,0.5-0.1,0.7-0.2
		c0.2-0.1,0.5-0.3,0.6-0.5c0.2-0.2,0.3-0.5,0.3-0.8v-5.2c0-0.5,0.1-1.1,0.3-1.7c0.2-0.6,0.5-1.2,0.9-1.7c-0.3-0.4-0.6-0.9-0.8-1.5
		s-0.3-1.2-0.3-2v-5.2v0c0-0.3-0.1-0.5-0.2-0.7c-0.1-0.2-0.3-0.3-0.5-0.5c-0.2-0.1-0.5-0.2-0.7-0.3s-0.5-0.1-0.8-0.1h-1.9V10z"/>
</g>
</svg>
