<?xml version="1.0" encoding="utf-8"?>
<!-- Generator: Adobe Illustrator 22.0.1, SVG Export Plug-In . SVG Version: 6.00 Build 0)  -->
<svg version="1.1" id="Layer_1" xmlns="http://www.w3.org/2000/svg" xmlns:xlink="http://www.w3.org/1999/xlink" x="0px" y="0px"
	 width="100px" height="100px" viewBox="0 0 100 100" style="enable-background:new 0 0 100 100;" xml:space="preserve">
<style type="text/css">
	.st0{fill:#FFFFFF;}
	.st1{fill:none;stroke:#FFFFFF;stroke-width:3;stroke-miterlimit:10;}
</style>
<g>
	<path class="st0" d="M94,2c2.2,0,4,1.8,4,4v88c0,2.2-1.8,4-4,4H6c-2.2,0-4-1.8-4-4V6c0-2.2,1.8-4,4-4H94 M94,0H6C2.7,0,0,2.7,0,6
		v88c0,3.3,2.7,6,6,6h88c3.3,0,6-2.7,6-6V6C100,2.7,97.3,0,94,0L94,0z"/>
</g>
<g>
	<path class="st1" d="M68.5,42.5c5.2-1.6,8.5-3.9,8.5-6.5c0-5-12.3-9-27.5-9S22,31,22,36c0,2.6,3.3,4.9,8.5,6.5"/>
	<path class="st1" d="M70,55c4.4-1.6,7-3.7,7-6c0-2.6-3.3-4.9-8.5-6.5C63.6,44,56.9,45,49.5,45s-14.1-1-19-2.5
		C25.3,44.1,22,46.4,22,49c0,2.3,2.7,4.4,7,6"/>
	<path class="st1" d="M29,55c-4.4,1.6-7,3.7-7,6c0,5,12.3,9,27.5,9S77,66,77,61c0-2.3-2.7-4.4-7-6c-5,1.8-12.3,3-20.5,3
		S34,56.8,29,55z"/>
</g>
</svg>
