<?xml version="1.0" encoding="utf-8"?>
<!-- Generator: Adobe Illustrator 22.0.1, SVG Export Plug-In . SVG Version: 6.00 Build 0)  -->
<svg version="1.1" id="Layer_1" xmlns="http://www.w3.org/2000/svg" xmlns:xlink="http://www.w3.org/1999/xlink" x="0px" y="0px"
	 width="100px" height="100px" viewBox="0 0 100 100" style="enable-background:new 0 0 100 100;" xml:space="preserve">
<style type="text/css">
	.st0{fill:#FFFFFF;}
</style>
<g>
	<path class="st0" d="M94,2c2.2,0,4,1.8,4,4v88c0,2.2-1.8,4-4,4H6c-2.2,0-4-1.8-4-4V6c0-2.2,1.8-4,4-4H94 M94,0H6C2.7,0,0,2.7,0,6
		v88c0,3.3,2.7,6,6,6h88c3.3,0,6-2.7,6-6V6C100,2.7,97.3,0,94,0L94,0z"/>
</g>
<g>
	<circle class="st0" cx="24" cy="23" r="7.7"/>
	<path class="st0" d="M24,15.6c4.1,0,7.4,3.3,7.4,7.4s-3.3,7.4-7.4,7.4s-7.4-3.3-7.4-7.4S19.9,15.6,24,15.6 M24,15c-4.4,0-8,3.6-8,8
		s3.6,8,8,8s8-3.6,8-8S28.4,15,24,15L24,15z"/>
</g>
<g>
	<circle class="st0" cx="50" cy="23" r="7.7"/>
	<path class="st0" d="M50,15.6c4.1,0,7.4,3.3,7.4,7.4s-3.3,7.4-7.4,7.4s-7.4-3.3-7.4-7.4S45.9,15.6,50,15.6 M50,15c-4.4,0-8,3.6-8,8
		s3.6,8,8,8s8-3.6,8-8S54.4,15,50,15L50,15z"/>
</g>
<g>
	<circle class="st0" cx="76" cy="23" r="7.7"/>
	<path class="st0" d="M76,15.6c4.1,0,7.4,3.3,7.4,7.4s-3.3,7.4-7.4,7.4s-7.4-3.3-7.4-7.4S71.9,15.6,76,15.6 M76,15c-4.4,0-8,3.6-8,8
		s3.6,8,8,8s8-3.6,8-8S80.4,15,76,15L76,15z"/>
</g>
<g>
	<circle class="st0" cx="24" cy="50" r="7.7"/>
	<path class="st0" d="M24,42.6c4.1,0,7.4,3.3,7.4,7.4s-3.3,7.4-7.4,7.4s-7.4-3.3-7.4-7.4S19.9,42.6,24,42.6 M24,42c-4.4,0-8,3.6-8,8
		s3.6,8,8,8s8-3.6,8-8S28.4,42,24,42L24,42z"/>
</g>
<g>
	<circle class="st0" cx="50" cy="50" r="7.7"/>
	<path class="st0" d="M50,42.6c4.1,0,7.4,3.3,7.4,7.4s-3.3,7.4-7.4,7.4s-7.4-3.3-7.4-7.4S45.9,42.6,50,42.6 M50,42c-4.4,0-8,3.6-8,8
		s3.6,8,8,8s8-3.6,8-8S54.4,42,50,42L50,42z"/>
</g>
</svg>
