<?xml version="1.0" encoding="utf-8"?>
<!-- Generator: Adobe Illustrator 22.0.1, SVG Export Plug-In . SVG Version: 6.00 Build 0)  -->
<svg version="1.1" id="Layer_1" xmlns="http://www.w3.org/2000/svg" xmlns:xlink="http://www.w3.org/1999/xlink" x="0px" y="0px"
	 width="100px" height="100px" viewBox="0 0 100 100" style="enable-background:new 0 0 100 100;" xml:space="preserve">
<style type="text/css">
	.st0{fill:#FFFFFF;}
</style>
<g>
	<path class="st0" d="M94,2c2.2,0,4,1.8,4,4v88c0,2.2-1.8,4-4,4H6c-2.2,0-4-1.8-4-4V6c0-2.2,1.8-4,4-4H94 M94,0H6C2.7,0,0,2.7,0,6
		v88c0,3.3,2.7,6,6,6h88c3.3,0,6-2.7,6-6V6C100,2.7,97.3,0,94,0L94,0z"/>
</g>
<path class="st0" d="M34,20H8c-1.1,0-2-0.9-2-2V8c0-1.1,0.9-2,2-2h26c1.1,0,2,0.9,2,2v10C36,19.1,35.1,20,34,20z"/>
<path class="st0" d="M44,60H8c-1.1,0-2-0.9-2-2V48c0-1.1,0.9-2,2-2h36c1.1,0,2,0.9,2,2v10C46,59.1,45.1,60,44,60z"/>
<path class="st0" d="M54,40H8c-1.1,0-2-0.9-2-2V28c0-1.1,0.9-2,2-2h46c1.1,0,2,0.9,2,2v10C56,39.1,55.1,40,54,40z"/>
<path class="st0" d="M92,40H63c-1.1,0-2-0.9-2-2V28c0-1.1,0.9-2,2-2h29c1.1,0,2,0.9,2,2v10C94,39.1,93.1,40,92,40z"/>
<path class="st0" d="M92,20H43c-1.1,0-2-0.9-2-2V8c0-1.1,0.9-2,2-2h49c1.1,0,2,0.9,2,2v10C94,19.1,93.1,20,92,20z"/>
</svg>
